<svg id="visual" viewBox="0 0 960 540" width="960" height="540" xmlns="http://www.w3.org/2000/svg" xmlns:xlink="http://www.w3.org/1999/xlink" version="1.1"><rect x="0" y="0" width="960" height="540" fill="#001220"></rect><defs><linearGradient id="grad1_0" x1="43.8%" y1="100%" x2="100%" y2="0%"><stop offset="14.444444444444446%" stop-color="#300449" stop-opacity="1"></stop><stop offset="85.55555555555554%" stop-color="#300449" stop-opacity="1"></stop></linearGradient></defs><defs><linearGradient id="grad1_1" x1="43.8%" y1="100%" x2="100%" y2="0%"><stop offset="14.444444444444446%" stop-color="#300449" stop-opacity="1"></stop><stop offset="85.55555555555554%" stop-color="#171145" stop-opacity="1"></stop></linearGradient></defs><defs><linearGradient id="grad1_2" x1="43.8%" y1="100%" x2="100%" y2="0%"><stop offset="14.444444444444446%" stop-color="#00153b" stop-opacity="1"></stop><stop offset="85.55555555555554%" stop-color="#171145" stop-opacity="1"></stop></linearGradient></defs><defs><linearGradient id="grad1_3" x1="43.8%" y1="100%" x2="100%" y2="0%"><stop offset="14.444444444444446%" stop-color="#00153b" stop-opacity="1"></stop><stop offset="85.55555555555554%" stop-color="#00142e" stop-opacity="1"></stop></linearGradient></defs><defs><linearGradient id="grad1_4" x1="43.8%" y1="100%" x2="100%" y2="0%"><stop offset="14.444444444444446%" stop-color="#001220" stop-opacity="1"></stop><stop offset="85.55555555555554%" stop-color="#00142e" stop-opacity="1"></stop></linearGradient></defs><defs><linearGradient id="grad2_0" x1="0%" y1="100%" x2="56.3%" y2="0%"><stop offset="14.444444444444446%" stop-color="#300449" stop-opacity="1"></stop><stop offset="85.55555555555554%" stop-color="#300449" stop-opacity="1"></stop></linearGradient></defs><defs><linearGradient id="grad2_1" x1="0%" y1="100%" x2="56.3%" y2="0%"><stop offset="14.444444444444446%" stop-color="#171145" stop-opacity="1"></stop><stop offset="85.55555555555554%" stop-color="#300449" stop-opacity="1"></stop></linearGradient></defs><defs><linearGradient id="grad2_2" x1="0%" y1="100%" x2="56.3%" y2="0%"><stop offset="14.444444444444446%" stop-color="#171145" stop-opacity="1"></stop><stop offset="85.55555555555554%" stop-color="#00153b" stop-opacity="1"></stop></linearGradient></defs><defs><linearGradient id="grad2_3" x1="0%" y1="100%" x2="56.3%" y2="0%"><stop offset="14.444444444444446%" stop-color="#00142e" stop-opacity="1"></stop><stop offset="85.55555555555554%" stop-color="#00153b" stop-opacity="1"></stop></linearGradient></defs><defs><linearGradient id="grad2_4" x1="0%" y1="100%" x2="56.3%" y2="0%"><stop offset="14.444444444444446%" stop-color="#00142e" stop-opacity="1"></stop><stop offset="85.55555555555554%" stop-color="#001220" stop-opacity="1"></stop></linearGradient></defs><g transform="translate(960, 540)"><path d="M-486 0C-490.9 -39.9 -495.8 -79.7 -473.8 -108.1C-451.9 -136.5 -403.1 -153.5 -383.8 -184.8C-364.6 -216.2 -374.9 -262 -353.4 -281.8C-331.9 -301.6 -278.7 -295.5 -248.1 -311.2C-217.6 -326.8 -209.9 -364.2 -190.5 -395.5C-171.1 -426.8 -140 -452 -106.4 -466C-72.7 -480.1 -36.3 -483 0 -486L0 0Z" fill="#001327"></path><path d="M-388.8 0C-392.7 -31.9 -396.6 -63.8 -379.1 -86.5C-361.5 -109.2 -322.4 -122.8 -307.1 -147.9C-291.7 -173 -299.9 -209.6 -282.7 -225.5C-265.5 -241.3 -222.9 -236.4 -198.5 -248.9C-174.1 -261.5 -167.9 -291.4 -152.4 -316.4C-136.9 -341.4 -112 -361.6 -85.1 -372.8C-58.1 -384.1 -29.1 -386.4 0 -388.8L0 0Z" fill="#001535"></path><path d="M-291.6 0C-294.5 -23.9 -297.5 -47.8 -284.3 -64.9C-271.1 -81.9 -241.8 -92.1 -230.3 -110.9C-218.7 -129.7 -224.9 -157.2 -212 -169.1C-199.1 -181 -167.2 -177.3 -148.9 -186.7C-130.6 -196.1 -125.9 -218.5 -114.3 -237.3C-102.6 -256.1 -84 -271.2 -63.8 -279.6C-43.6 -288 -21.8 -289.8 0 -291.6L0 0Z" fill="#0a1441"></path><path d="M-194.4 0C-196.4 -15.9 -198.3 -31.9 -189.5 -43.3C-180.7 -54.6 -161.2 -61.4 -153.5 -73.9C-145.8 -86.5 -149.9 -104.8 -141.4 -112.7C-132.8 -120.7 -111.5 -118.2 -99.3 -124.5C-87.1 -130.7 -83.9 -145.7 -76.2 -158.2C-68.4 -170.7 -56 -180.8 -42.5 -186.4C-29.1 -192 -14.5 -193.2 0 -194.4L0 0Z" fill="#240c48"></path><path d="M-97.2 0C-98.2 -8 -99.2 -15.9 -94.8 -21.6C-90.4 -27.3 -80.6 -30.7 -76.8 -37C-72.9 -43.2 -75 -52.4 -70.7 -56.4C-66.4 -60.3 -55.7 -59.1 -49.6 -62.2C-43.5 -65.4 -42 -72.8 -38.1 -79.1C-34.2 -85.4 -28 -90.4 -21.3 -93.2C-14.5 -96 -7.3 -96.6 0 -97.2L0 0Z" fill="#300449"></path></g><g transform="translate(0, 0)"><path d="M486 0C451.6 28.6 417.3 57.3 415.3 94.8C413.3 132.3 443.8 178.8 437.9 210.9C432 243 389.8 260.8 362.8 289.3C335.8 317.8 324 357.1 291.8 365.9C259.6 374.7 207.1 353.2 172.7 358.6C138.3 364 122.1 396.4 96.4 422.1C70.6 447.9 35.3 466.9 0 486L0 0Z" fill="#001327"></path><path d="M388.8 0C361.3 22.9 333.8 45.8 332.3 75.8C330.7 105.9 355 143 350.3 168.7C345.6 194.4 311.8 208.6 290.2 231.4C268.6 254.3 259.2 285.6 233.4 292.7C207.7 299.8 165.7 282.5 138.1 286.9C110.6 291.2 97.7 317.1 77.1 337.7C56.5 358.3 28.2 373.6 0 388.8L0 0Z" fill="#001535"></path><path d="M291.6 0C271 17.2 250.4 34.4 249.2 56.9C248 79.4 266.3 107.3 262.7 126.5C259.2 145.8 233.9 156.5 217.7 173.6C201.5 190.7 194.4 214.2 175.1 219.5C155.8 224.8 124.2 211.9 103.6 215.2C83 218.4 73.3 237.8 57.8 253.3C42.4 268.7 21.2 280.2 0 291.6L0 0Z" fill="#0a1441"></path><path d="M194.4 0C180.7 11.5 166.9 22.9 166.1 37.9C165.3 52.9 177.5 71.5 175.1 84.3C172.8 97.2 155.9 104.3 145.1 115.7C134.3 127.1 129.6 142.8 116.7 146.4C103.8 149.9 82.8 141.3 69.1 143.4C55.3 145.6 48.8 158.6 38.5 168.9C28.2 179.2 14.1 186.8 0 194.4L0 0Z" fill="#240c48"></path><path d="M97.2 0C90.3 5.7 83.5 11.5 83.1 19C82.7 26.5 88.8 35.8 87.6 42.2C86.4 48.6 78 52.2 72.6 57.9C67.2 63.6 64.8 71.4 58.4 73.2C51.9 74.9 41.4 70.6 34.5 71.7C27.7 72.8 24.4 79.3 19.3 84.4C14.1 89.6 7.1 93.4 0 97.2L0 0Z" fill="#300449"></path></g></svg>