<svg id="visual" viewBox="0 0 960 640" width="960" height="640" xmlns="http://www.w3.org/2000/svg" xmlns:xlink="http://www.w3.org/1999/xlink" version="1.1"><g stroke-width="1" stroke-linejoin="bevel"><path d="M443.1 284.4L369.2 284.4L443.1 355.6Z" fill="#111639" stroke="#111639"></path><path d="M369.2 284.4L369.2 355.6L443.1 355.6Z" fill="#1d1143" stroke="#1d1143"></path><path d="M443.1 213.3L369.2 213.3L369.2 284.4Z" fill="#111639" stroke="#111639"></path><path d="M443.1 284.4L443.1 213.3L369.2 284.4Z" fill="#0f1727" stroke="#0f1727"></path><path d="M369.2 355.6L369.2 426.7L443.1 355.6Z" fill="#0e1731" stroke="#0e1731"></path><path d="M369.2 426.7L443.1 426.7L443.1 355.6Z" fill="#14153d" stroke="#14153d"></path><path d="M369.2 213.3L295.4 284.4L369.2 284.4Z" fill="#300449" stroke="#300449"></path><path d="M369.2 284.4L295.4 284.4L369.2 355.6Z" fill="#0e1735" stroke="#0e1735"></path><path d="M369.2 355.6L295.4 355.6L369.2 426.7Z" fill="#230e46" stroke="#230e46"></path><path d="M295.4 284.4L295.4 355.6L369.2 355.6Z" fill="#14153d" stroke="#14153d"></path><path d="M516.9 355.6L516.9 284.4L443.1 355.6Z" fill="#1d1143" stroke="#1d1143"></path><path d="M443.1 355.6L516.9 284.4L443.1 284.4Z" fill="#1d1143" stroke="#1d1143"></path><path d="M443.1 284.4L516.9 213.3L443.1 213.3Z" fill="#0e172c" stroke="#0e172c"></path><path d="M443.1 426.7L516.9 355.6L443.1 355.6Z" fill="#290a48" stroke="#290a48"></path><path d="M369.2 213.3L295.4 213.3L295.4 284.4Z" fill="#111639" stroke="#111639"></path><path d="M295.4 355.6L295.4 426.7L369.2 426.7Z" fill="#0e172c" stroke="#0e172c"></path><path d="M516.9 284.4L516.9 213.3L443.1 284.4Z" fill="#290a48" stroke="#290a48"></path><path d="M443.1 426.7L516.9 426.7L516.9 355.6Z" fill="#0f1727" stroke="#0f1727"></path><path d="M516.9 142.2L443.1 142.2L443.1 213.3Z" fill="#181440" stroke="#181440"></path><path d="M443.1 213.3L369.2 142.2L369.2 213.3Z" fill="#0f1727" stroke="#0f1727"></path><path d="M369.2 213.3L369.2 142.2L295.4 213.3Z" fill="#300449" stroke="#300449"></path><path d="M443.1 142.2L369.2 142.2L443.1 213.3Z" fill="#290a48" stroke="#290a48"></path><path d="M295.4 426.7L369.2 497.8L369.2 426.7Z" fill="#0e172c" stroke="#0e172c"></path><path d="M369.2 426.7L369.2 497.8L443.1 426.7Z" fill="#300449" stroke="#300449"></path><path d="M443.1 426.7L443.1 497.8L516.9 426.7Z" fill="#14153d" stroke="#14153d"></path><path d="M369.2 497.8L443.1 497.8L443.1 426.7Z" fill="#230e46" stroke="#230e46"></path><path d="M295.4 284.4L221.5 355.6L295.4 355.6Z" fill="#111639" stroke="#111639"></path><path d="M295.4 355.6L221.5 355.6L295.4 426.7Z" fill="#0e1735" stroke="#0e1735"></path><path d="M221.5 284.4L221.5 355.6L295.4 284.4Z" fill="#290a48" stroke="#290a48"></path><path d="M295.4 213.3L221.5 284.4L295.4 284.4Z" fill="#300449" stroke="#300449"></path><path d="M516.9 426.7L590.8 355.6L516.9 355.6Z" fill="#14153d" stroke="#14153d"></path><path d="M516.9 355.6L590.8 355.6L516.9 284.4Z" fill="#181440" stroke="#181440"></path><path d="M516.9 284.4L590.8 284.4L516.9 213.3Z" fill="#111639" stroke="#111639"></path><path d="M590.8 355.6L590.8 284.4L516.9 284.4Z" fill="#0e1735" stroke="#0e1735"></path><path d="M369.2 142.2L295.4 142.2L295.4 213.3Z" fill="#0f1727" stroke="#0f1727"></path><path d="M295.4 213.3L221.5 213.3L221.5 284.4Z" fill="#0e1731" stroke="#0e1731"></path><path d="M221.5 426.7L295.4 497.8L295.4 426.7Z" fill="#111639" stroke="#111639"></path><path d="M295.4 426.7L295.4 497.8L369.2 497.8Z" fill="#300449" stroke="#300449"></path><path d="M590.8 213.3L516.9 142.2L516.9 213.3Z" fill="#0e1731" stroke="#0e1731"></path><path d="M516.9 213.3L516.9 142.2L443.1 213.3Z" fill="#230e46" stroke="#230e46"></path><path d="M443.1 497.8L516.9 497.8L516.9 426.7Z" fill="#14153d" stroke="#14153d"></path><path d="M516.9 426.7L590.8 426.7L590.8 355.6Z" fill="#0e172c" stroke="#0e172c"></path><path d="M295.4 142.2L221.5 213.3L295.4 213.3Z" fill="#290a48" stroke="#290a48"></path><path d="M221.5 355.6L221.5 426.7L295.4 426.7Z" fill="#290a48" stroke="#290a48"></path><path d="M590.8 284.4L590.8 213.3L516.9 213.3Z" fill="#181440" stroke="#181440"></path><path d="M516.9 497.8L590.8 426.7L516.9 426.7Z" fill="#14153d" stroke="#14153d"></path><path d="M443.1 71.1L369.2 71.1L369.2 142.2Z" fill="#230e46" stroke="#230e46"></path><path d="M369.2 142.2L369.2 71.1L295.4 142.2Z" fill="#230e46" stroke="#230e46"></path><path d="M443.1 71.1L369.2 142.2L443.1 142.2Z" fill="#290a48" stroke="#290a48"></path><path d="M516.9 71.1L443.1 71.1L443.1 142.2Z" fill="#230e46" stroke="#230e46"></path><path d="M369.2 497.8L443.1 568.9L443.1 497.8Z" fill="#111639" stroke="#111639"></path><path d="M443.1 497.8L443.1 568.9L516.9 497.8Z" fill="#1d1143" stroke="#1d1143"></path><path d="M369.2 568.9L443.1 568.9L369.2 497.8Z" fill="#0e1735" stroke="#0e1735"></path><path d="M295.4 497.8L369.2 568.9L369.2 497.8Z" fill="#111639" stroke="#111639"></path><path d="M295.4 71.1L221.5 142.2L295.4 142.2Z" fill="#1d1143" stroke="#1d1143"></path><path d="M295.4 142.2L221.5 142.2L221.5 213.3Z" fill="#14153d" stroke="#14153d"></path><path d="M221.5 426.7L221.5 497.8L295.4 497.8Z" fill="#0e1731" stroke="#0e1731"></path><path d="M295.4 497.8L295.4 568.9L369.2 568.9Z" fill="#0e1731" stroke="#0e1731"></path><path d="M590.8 213.3L590.8 142.2L516.9 142.2Z" fill="#300449" stroke="#300449"></path><path d="M516.9 142.2L516.9 71.1L443.1 142.2Z" fill="#0e172c" stroke="#0e172c"></path><path d="M516.9 568.9L590.8 497.8L516.9 497.8Z" fill="#300449" stroke="#300449"></path><path d="M516.9 497.8L590.8 497.8L590.8 426.7Z" fill="#181440" stroke="#181440"></path><path d="M221.5 213.3L147.7 284.4L221.5 284.4Z" fill="#0e1731" stroke="#0e1731"></path><path d="M221.5 284.4L147.7 284.4L221.5 355.6Z" fill="#230e46" stroke="#230e46"></path><path d="M221.5 355.6L147.7 355.6L221.5 426.7Z" fill="#0e1735" stroke="#0e1735"></path><path d="M221.5 426.7L147.7 426.7L221.5 497.8Z" fill="#0e1731" stroke="#0e1731"></path><path d="M147.7 213.3L147.7 284.4L221.5 213.3Z" fill="#290a48" stroke="#290a48"></path><path d="M147.7 284.4L147.7 355.6L221.5 355.6Z" fill="#0e1731" stroke="#0e1731"></path><path d="M590.8 355.6L664.6 284.4L590.8 284.4Z" fill="#0e1735" stroke="#0e1735"></path><path d="M590.8 284.4L664.6 284.4L590.8 213.3Z" fill="#0e172c" stroke="#0e172c"></path><path d="M590.8 213.3L664.6 213.3L590.8 142.2Z" fill="#0e172c" stroke="#0e172c"></path><path d="M664.6 355.6L664.6 284.4L590.8 355.6Z" fill="#0f1727" stroke="#0f1727"></path><path d="M664.6 355.6L590.8 355.6L590.8 426.7Z" fill="#0e172c" stroke="#0e172c"></path><path d="M664.6 426.7L664.6 355.6L590.8 426.7Z" fill="#230e46" stroke="#230e46"></path><path d="M369.2 71.1L295.4 71.1L295.4 142.2Z" fill="#14153d" stroke="#14153d"></path><path d="M221.5 497.8L295.4 568.9L295.4 497.8Z" fill="#0f1727" stroke="#0f1727"></path><path d="M590.8 142.2L516.9 71.1L516.9 142.2Z" fill="#230e46" stroke="#230e46"></path><path d="M443.1 568.9L516.9 568.9L516.9 497.8Z" fill="#1d1143" stroke="#1d1143"></path><path d="M221.5 142.2L147.7 213.3L221.5 213.3Z" fill="#0e1735" stroke="#0e1735"></path><path d="M147.7 355.6L147.7 426.7L221.5 426.7Z" fill="#0e1731" stroke="#0e1731"></path><path d="M590.8 497.8L664.6 426.7L590.8 426.7Z" fill="#300449" stroke="#300449"></path><path d="M664.6 284.4L664.6 213.3L590.8 213.3Z" fill="#1d1143" stroke="#1d1143"></path><path d="M295.4 71.1L221.5 71.1L221.5 142.2Z" fill="#0f1727" stroke="#0f1727"></path><path d="M221.5 142.2L147.7 142.2L147.7 213.3Z" fill="#230e46" stroke="#230e46"></path><path d="M147.7 497.8L221.5 568.9L221.5 497.8Z" fill="#1d1143" stroke="#1d1143"></path><path d="M221.5 497.8L221.5 568.9L295.4 568.9Z" fill="#0e1731" stroke="#0e1731"></path><path d="M664.6 142.2L590.8 71.1L590.8 142.2Z" fill="#14153d" stroke="#14153d"></path><path d="M590.8 142.2L590.8 71.1L516.9 71.1Z" fill="#181440" stroke="#181440"></path><path d="M516.9 568.9L590.8 568.9L590.8 497.8Z" fill="#0e1735" stroke="#0e1735"></path><path d="M590.8 497.8L664.6 497.8L664.6 426.7Z" fill="#0e1735" stroke="#0e1735"></path><path d="M221.5 71.1L147.7 142.2L221.5 142.2Z" fill="#111639" stroke="#111639"></path><path d="M147.7 426.7L147.7 497.8L221.5 497.8Z" fill="#0e172c" stroke="#0e172c"></path><path d="M664.6 213.3L664.6 142.2L590.8 142.2Z" fill="#0f1727" stroke="#0f1727"></path><path d="M590.8 568.9L664.6 497.8L590.8 497.8Z" fill="#0e1731" stroke="#0e1731"></path><path d="M443.1 568.9L443.1 640L516.9 568.9Z" fill="#300449" stroke="#300449"></path><path d="M516.9 568.9L516.9 640L590.8 568.9Z" fill="#290a48" stroke="#290a48"></path><path d="M369.2 568.9L443.1 640L443.1 568.9Z" fill="#111639" stroke="#111639"></path><path d="M369.2 640L443.1 640L369.2 568.9Z" fill="#0f1727" stroke="#0f1727"></path><path d="M369.2 640L369.2 568.9L295.4 568.9Z" fill="#111639" stroke="#111639"></path><path d="M369.2 71.1L369.2 0L295.4 71.1Z" fill="#1d1143" stroke="#1d1143"></path><path d="M295.4 71.1L295.4 0L221.5 71.1Z" fill="#0e1735" stroke="#0e1735"></path><path d="M443.1 0L369.2 0L369.2 71.1Z" fill="#181440" stroke="#181440"></path><path d="M443.1 0L369.2 71.1L443.1 71.1Z" fill="#0e1735" stroke="#0e1735"></path><path d="M443.1 0L443.1 71.1L516.9 0Z" fill="#0f1727" stroke="#0f1727"></path><path d="M516.9 0L443.1 71.1L516.9 71.1Z" fill="#14153d" stroke="#14153d"></path><path d="M295.4 640L369.2 640L295.4 568.9Z" fill="#14153d" stroke="#14153d"></path><path d="M147.7 355.6L73.8 355.6L147.7 426.7Z" fill="#0e172c" stroke="#0e172c"></path><path d="M147.7 426.7L73.8 426.7L147.7 497.8Z" fill="#290a48" stroke="#290a48"></path><path d="M147.7 284.4L73.8 355.6L147.7 355.6Z" fill="#0f1727" stroke="#0f1727"></path><path d="M73.8 284.4L73.8 355.6L147.7 284.4Z" fill="#290a48" stroke="#290a48"></path><path d="M73.8 284.4L147.7 284.4L147.7 213.3Z" fill="#1d1143" stroke="#1d1143"></path><path d="M738.5 426.7L738.5 355.6L664.6 426.7Z" fill="#0e1735" stroke="#0e1735"></path><path d="M664.6 426.7L738.5 355.6L664.6 355.6Z" fill="#0e1731" stroke="#0e1731"></path><path d="M664.6 355.6L738.5 355.6L664.6 284.4Z" fill="#14153d" stroke="#14153d"></path><path d="M664.6 284.4L738.5 284.4L664.6 213.3Z" fill="#181440" stroke="#181440"></path><path d="M664.6 213.3L738.5 213.3L664.6 142.2Z" fill="#290a48" stroke="#290a48"></path><path d="M73.8 213.3L73.8 284.4L147.7 213.3Z" fill="#300449" stroke="#300449"></path><path d="M738.5 355.6L738.5 284.4L664.6 284.4Z" fill="#230e46" stroke="#230e46"></path><path d="M369.2 0L295.4 0L295.4 71.1Z" fill="#300449" stroke="#300449"></path><path d="M221.5 568.9L295.4 640L295.4 568.9Z" fill="#0e1731" stroke="#0e1731"></path><path d="M590.8 71.1L516.9 0L516.9 71.1Z" fill="#1d1143" stroke="#1d1143"></path><path d="M443.1 640L516.9 640L516.9 568.9Z" fill="#0e1735" stroke="#0e1735"></path><path d="M738.5 284.4L738.5 213.3L664.6 213.3Z" fill="#0e1735" stroke="#0e1735"></path><path d="M147.7 142.2L73.8 213.3L147.7 213.3Z" fill="#300449" stroke="#300449"></path><path d="M664.6 497.8L738.5 426.7L664.6 426.7Z" fill="#0f1727" stroke="#0f1727"></path><path d="M73.8 355.6L73.8 426.7L147.7 426.7Z" fill="#1d1143" stroke="#1d1143"></path><path d="M221.5 71.1L147.7 71.1L147.7 142.2Z" fill="#111639" stroke="#111639"></path><path d="M147.7 142.2L73.8 142.2L73.8 213.3Z" fill="#300449" stroke="#300449"></path><path d="M221.5 0L147.7 71.1L221.5 71.1Z" fill="#1d1143" stroke="#1d1143"></path><path d="M147.7 497.8L147.7 568.9L221.5 568.9Z" fill="#181440" stroke="#181440"></path><path d="M221.5 568.9L221.5 640L295.4 640Z" fill="#181440" stroke="#181440"></path><path d="M73.8 497.8L147.7 568.9L147.7 497.8Z" fill="#181440" stroke="#181440"></path><path d="M664.6 142.2L664.6 71.1L590.8 71.1Z" fill="#0e172c" stroke="#0e172c"></path><path d="M590.8 71.1L590.8 0L516.9 0Z" fill="#230e46" stroke="#230e46"></path><path d="M738.5 142.2L664.6 71.1L664.6 142.2Z" fill="#0f1727" stroke="#0f1727"></path><path d="M590.8 568.9L664.6 568.9L664.6 497.8Z" fill="#230e46" stroke="#230e46"></path><path d="M664.6 497.8L738.5 497.8L738.5 426.7Z" fill="#290a48" stroke="#290a48"></path><path d="M590.8 640L664.6 568.9L590.8 568.9Z" fill="#0e172c" stroke="#0e172c"></path><path d="M295.4 0L221.5 0L221.5 71.1Z" fill="#290a48" stroke="#290a48"></path><path d="M147.7 568.9L221.5 640L221.5 568.9Z" fill="#0e1735" stroke="#0e1735"></path><path d="M664.6 71.1L590.8 0L590.8 71.1Z" fill="#230e46" stroke="#230e46"></path><path d="M516.9 640L590.8 640L590.8 568.9Z" fill="#0e172c" stroke="#0e172c"></path><path d="M147.7 71.1L73.8 142.2L147.7 142.2Z" fill="#181440" stroke="#181440"></path><path d="M738.5 213.3L738.5 142.2L664.6 142.2Z" fill="#14153d" stroke="#14153d"></path><path d="M73.8 426.7L73.8 497.8L147.7 497.8Z" fill="#230e46" stroke="#230e46"></path><path d="M664.6 568.9L738.5 497.8L664.6 497.8Z" fill="#0e1735" stroke="#0e1735"></path><path d="M0 213.3L0 284.4L73.8 213.3Z" fill="#181440" stroke="#181440"></path><path d="M73.8 213.3L0 284.4L73.8 284.4Z" fill="#14153d" stroke="#14153d"></path><path d="M73.8 284.4L0 284.4L73.8 355.6Z" fill="#0e172c" stroke="#0e172c"></path><path d="M73.8 355.6L0 355.6L73.8 426.7Z" fill="#0e172c" stroke="#0e172c"></path><path d="M73.8 426.7L0 426.7L73.8 497.8Z" fill="#0f1727" stroke="#0f1727"></path><path d="M0 284.4L0 355.6L73.8 355.6Z" fill="#300449" stroke="#300449"></path><path d="M738.5 284.4L812.3 284.4L738.5 213.3Z" fill="#230e46" stroke="#230e46"></path><path d="M738.5 213.3L812.3 213.3L738.5 142.2Z" fill="#0e1735" stroke="#0e1735"></path><path d="M738.5 355.6L812.3 284.4L738.5 284.4Z" fill="#111639" stroke="#111639"></path><path d="M812.3 355.6L812.3 284.4L738.5 355.6Z" fill="#0e1731" stroke="#0e1731"></path><path d="M812.3 355.6L738.5 355.6L812.3 426.7Z" fill="#230e46" stroke="#230e46"></path><path d="M812.3 426.7L738.5 355.6L738.5 426.7Z" fill="#230e46" stroke="#230e46"></path><path d="M73.8 568.9L147.7 640L147.7 568.9Z" fill="#290a48" stroke="#290a48"></path><path d="M147.7 568.9L147.7 640L221.5 640Z" fill="#230e46" stroke="#230e46"></path><path d="M147.7 71.1L73.8 71.1L73.8 142.2Z" fill="#0e1731" stroke="#0e1731"></path><path d="M221.5 0L147.7 0L147.7 71.1Z" fill="#230e46" stroke="#230e46"></path><path d="M738.5 71.1L664.6 71.1L738.5 142.2Z" fill="#181440" stroke="#181440"></path><path d="M738.5 71.1L664.6 0L664.6 71.1Z" fill="#14153d" stroke="#14153d"></path><path d="M664.6 71.1L664.6 0L590.8 0Z" fill="#300449" stroke="#300449"></path><path d="M664.6 568.9L738.5 568.9L738.5 497.8Z" fill="#0e1731" stroke="#0e1731"></path><path d="M812.3 497.8L812.3 426.7L738.5 426.7Z" fill="#0e1731" stroke="#0e1731"></path><path d="M590.8 640L664.6 640L664.6 568.9Z" fill="#0f1727" stroke="#0f1727"></path><path d="M147.7 0L73.8 71.1L147.7 71.1Z" fill="#14153d" stroke="#14153d"></path><path d="M73.8 142.2L0 213.3L73.8 213.3Z" fill="#0e1735" stroke="#0e1735"></path><path d="M812.3 142.2L738.5 71.1L738.5 142.2Z" fill="#1d1143" stroke="#1d1143"></path><path d="M664.6 640L738.5 568.9L664.6 568.9Z" fill="#290a48" stroke="#290a48"></path><path d="M0 497.8L73.8 568.9L73.8 497.8Z" fill="#300449" stroke="#300449"></path><path d="M73.8 497.8L73.8 568.9L147.7 568.9Z" fill="#14153d" stroke="#14153d"></path><path d="M0 355.6L0 426.7L73.8 426.7Z" fill="#111639" stroke="#111639"></path><path d="M0 142.2L0 213.3L73.8 142.2Z" fill="#300449" stroke="#300449"></path><path d="M812.3 497.8L738.5 426.7L738.5 497.8Z" fill="#230e46" stroke="#230e46"></path><path d="M812.3 284.4L812.3 213.3L738.5 213.3Z" fill="#0f1727" stroke="#0f1727"></path><path d="M0 426.7L0 497.8L73.8 497.8Z" fill="#0e1735" stroke="#0e1735"></path><path d="M73.8 71.1L0 142.2L73.8 142.2Z" fill="#111639" stroke="#111639"></path><path d="M738.5 568.9L812.3 497.8L738.5 497.8Z" fill="#290a48" stroke="#290a48"></path><path d="M812.3 568.9L812.3 497.8L738.5 568.9Z" fill="#1d1143" stroke="#1d1143"></path><path d="M812.3 213.3L812.3 142.2L738.5 142.2Z" fill="#300449" stroke="#300449"></path><path d="M738.5 71.1L738.5 0L664.6 0Z" fill="#0e1731" stroke="#0e1731"></path><path d="M0 568.9L73.8 640L73.8 568.9Z" fill="#1d1143" stroke="#1d1143"></path><path d="M73.8 568.9L73.8 640L147.7 640Z" fill="#1d1143" stroke="#1d1143"></path><path d="M147.7 0L73.8 0L73.8 71.1Z" fill="#0e172c" stroke="#0e172c"></path><path d="M73.8 71.1L0 71.1L0 142.2Z" fill="#230e46" stroke="#230e46"></path><path d="M664.6 640L738.5 640L738.5 568.9Z" fill="#0e172c" stroke="#0e172c"></path><path d="M812.3 71.1L738.5 0L738.5 71.1Z" fill="#290a48" stroke="#290a48"></path><path d="M0 497.8L0 568.9L73.8 568.9Z" fill="#0e1731" stroke="#0e1731"></path><path d="M73.8 0L0 71.1L73.8 71.1Z" fill="#14153d" stroke="#14153d"></path><path d="M812.3 142.2L812.3 71.1L738.5 71.1Z" fill="#230e46" stroke="#230e46"></path><path d="M738.5 640L812.3 568.9L738.5 568.9Z" fill="#0e1731" stroke="#0e1731"></path><path d="M886.2 426.7L812.3 426.7L812.3 497.8Z" fill="#0e1735" stroke="#0e1735"></path><path d="M886.2 426.7L886.2 355.6L812.3 426.7Z" fill="#290a48" stroke="#290a48"></path><path d="M812.3 426.7L886.2 355.6L812.3 355.6Z" fill="#0e172c" stroke="#0e172c"></path><path d="M812.3 355.6L886.2 355.6L812.3 284.4Z" fill="#0e1735" stroke="#0e1735"></path><path d="M812.3 284.4L886.2 284.4L812.3 213.3Z" fill="#181440" stroke="#181440"></path><path d="M812.3 213.3L886.2 213.3L812.3 142.2Z" fill="#300449" stroke="#300449"></path><path d="M812.3 142.2L886.2 142.2L812.3 71.1Z" fill="#290a48" stroke="#290a48"></path><path d="M886.2 355.6L886.2 284.4L812.3 284.4Z" fill="#300449" stroke="#300449"></path><path d="M886.2 497.8L886.2 426.7L812.3 497.8Z" fill="#111639" stroke="#111639"></path><path d="M886.2 284.4L886.2 213.3L812.3 213.3Z" fill="#0e1731" stroke="#0e1731"></path><path d="M812.3 568.9L886.2 497.8L812.3 497.8Z" fill="#290a48" stroke="#290a48"></path><path d="M886.2 213.3L886.2 142.2L812.3 142.2Z" fill="#300449" stroke="#300449"></path><path d="M0 568.9L0 640L73.8 640Z" fill="#0f1727" stroke="#0f1727"></path><path d="M73.8 0L0 0L0 71.1Z" fill="#14153d" stroke="#14153d"></path><path d="M738.5 640L812.3 640L812.3 568.9Z" fill="#1d1143" stroke="#1d1143"></path><path d="M812.3 568.9L886.2 568.9L886.2 497.8Z" fill="#0e1735" stroke="#0e1735"></path><path d="M886.2 71.1L812.3 0L812.3 71.1Z" fill="#230e46" stroke="#230e46"></path><path d="M812.3 71.1L812.3 0L738.5 0Z" fill="#181440" stroke="#181440"></path><path d="M886.2 142.2L886.2 71.1L812.3 71.1Z" fill="#111639" stroke="#111639"></path><path d="M812.3 640L886.2 568.9L812.3 568.9Z" fill="#181440" stroke="#181440"></path><path d="M886.2 213.3L960 213.3L886.2 142.2Z" fill="#290a48" stroke="#290a48"></path><path d="M886.2 142.2L960 142.2L886.2 71.1Z" fill="#1d1143" stroke="#1d1143"></path><path d="M886.2 284.4L960 284.4L886.2 213.3Z" fill="#1d1143" stroke="#1d1143"></path><path d="M886.2 355.6L960 284.4L886.2 284.4Z" fill="#111639" stroke="#111639"></path><path d="M960 355.6L960 284.4L886.2 355.6Z" fill="#14153d" stroke="#14153d"></path><path d="M960 355.6L886.2 355.6L886.2 426.7Z" fill="#230e46" stroke="#230e46"></path><path d="M960 355.6L886.2 426.7L960 426.7Z" fill="#0e1735" stroke="#0e1735"></path><path d="M960 426.7L886.2 426.7L886.2 497.8Z" fill="#0e1735" stroke="#0e1735"></path><path d="M960 284.4L960 213.3L886.2 213.3Z" fill="#181440" stroke="#181440"></path><path d="M960 497.8L960 426.7L886.2 497.8Z" fill="#0f1727" stroke="#0f1727"></path><path d="M960 71.1L886.2 0L886.2 71.1Z" fill="#0f1727" stroke="#0f1727"></path><path d="M886.2 71.1L886.2 0L812.3 0Z" fill="#1d1143" stroke="#1d1143"></path><path d="M812.3 640L886.2 640L886.2 568.9Z" fill="#111639" stroke="#111639"></path><path d="M886.2 568.9L960 497.8L886.2 497.8Z" fill="#1d1143" stroke="#1d1143"></path><path d="M960 568.9L960 497.8L886.2 568.9Z" fill="#1d1143" stroke="#1d1143"></path><path d="M960 213.3L960 142.2L886.2 142.2Z" fill="#111639" stroke="#111639"></path><path d="M886.2 640L960 568.9L886.2 568.9Z" fill="#0e172c" stroke="#0e172c"></path><path d="M960 142.2L960 71.1L886.2 71.1Z" fill="#0e172c" stroke="#0e172c"></path><path d="M960 71.1L960 0L886.2 0Z" fill="#181440" stroke="#181440"></path><path d="M886.2 640L960 640L960 568.9Z" fill="#111639" stroke="#111639"></path></g></svg>