<svg id="visual" viewBox="0 0 960 540" width="960" height="54" xmlns="http://www.w3.org/2000/svg" xmlns:xlink="http://www.w3.org/1999/xlink" version="1.1"><path d="M0 80L17.8 74.5C35.7 69 71.3 58 106.8 58.5C142.3 59 177.7 71 213.2 78.2C248.7 85.3 284.3 87.7 320 85.5C355.7 83.3 391.3 76.7 426.8 66.8C462.3 57 497.7 44 533.2 37.3C568.7 30.7 604.3 30.3 640 39.5C675.7 48.7 711.3 67.3 746.8 72.7C782.3 78 817.7 70 853.2 68.8C888.7 67.7 924.3 73.3 942.2 76.2L960 79L960 0L942.2 0C924.3 0 888.7 0 853.2 0C817.7 0 782.3 0 746.8 0C711.3 0 675.7 0 640 0C604.3 0 568.7 0 533.2 0C497.7 0 462.3 0 426.8 0C391.3 0 355.7 0 320 0C284.3 0 248.7 0 213.2 0C177.7 0 142.3 0 106.8 0C71.3 0 35.7 0 17.8 0L0 0Z" fill="#300449" stroke-linecap="round" stroke-linejoin="miter"></path></svg>