<svg id="visual" viewBox="0 0 960 240" width="960" height="240" xmlns="http://www.w3.org/2000/svg" xmlns:xlink="http://www.w3.org/1999/xlink" version="1.1"><path d="M0 42L17.8 51.5C35.7 61 71.3 80 106.8 82.7C142.3 85.3 177.7 71.7 213.2 70.7C248.7 69.7 284.3 81.3 320 76.5C355.7 71.7 391.3 50.3 426.8 43C462.3 35.7 497.7 42.3 533.2 48.3C568.7 54.3 604.3 59.7 640 69C675.7 78.3 711.3 91.7 746.8 101.8C782.3 112 817.7 119 853.2 121.5C888.7 124 924.3 122 942.2 121L960 120L960 0L942.2 0C924.3 0 888.7 0 853.2 0C817.7 0 782.3 0 746.8 0C711.3 0 675.7 0 640 0C604.3 0 568.7 0 533.2 0C497.7 0 462.3 0 426.8 0C391.3 0 355.7 0 320 0C284.3 0 248.7 0 213.2 0C177.7 0 142.3 0 106.8 0C71.3 0 35.7 0 17.8 0L0 0Z" fill="#300449" stroke-linecap="round" stroke-linejoin="miter"></path></svg>