<svg id="visual" viewBox="0 0 960 540" width="960" height="540" xmlns="http://www.w3.org/2000/svg" xmlns:xlink="http://www.w3.org/1999/xlink" version="1.1"><path d="M0 468L17.8 465C35.7 462 71.3 456 106.8 459.2C142.3 462.3 177.7 474.7 213.2 474.2C248.7 473.7 284.3 460.3 320 454.7C355.7 449 391.3 451 426.8 454C462.3 457 497.7 461 533.2 472.7C568.7 484.3 604.3 503.7 640 509.2C675.7 514.7 711.3 506.3 746.8 501.7C782.3 497 817.7 496 853.2 498.5C888.7 501 924.3 507 942.2 510L960 513L960 541L942.2 541C924.3 541 888.7 541 853.2 541C817.7 541 782.3 541 746.8 541C711.3 541 675.7 541 640 541C604.3 541 568.7 541 533.2 541C497.7 541 462.3 541 426.8 541C391.3 541 355.7 541 320 541C284.3 541 248.7 541 213.2 541C177.7 541 142.3 541 106.8 541C71.3 541 35.7 541 17.8 541L0 541Z" fill="#300449" stroke-linecap="round" stroke-linejoin="miter"></path></svg>